<svg width="31" height="31" viewBox="0 0 31 31" fill="none" xmlns="http://www.w3.org/2000/svg">
<path d="M25.8008 12.26L16.3461 21.7147C16.1654 21.8895 15.9239 21.9871 15.6725 21.9871C15.4211 21.9871 15.1795 21.8895 14.9988 21.7147L5.54417 12.26C5.4159 12.1233 5.32897 11.9531 5.29341 11.7691C5.25786 11.585 5.27514 11.3947 5.34325 11.22C5.41558 11.0479 5.53723 10.9011 5.69286 10.7981C5.8485 10.695 6.03115 10.6403 6.21781 10.6409H25.1271C25.3138 10.6403 25.4964 10.695 25.6521 10.7981C25.8077 10.9011 25.9294 11.0479 26.0017 11.22C26.0698 11.3947 26.0871 11.585 26.0515 11.7691C26.016 11.9531 25.929 12.1233 25.8008 12.26Z" fill="#606268"/>
</svg>
