<?xml version="1.0" standalone="no"?>
<!DOCTYPE svg PUBLIC "-//W3C//DTD SVG 20010904//EN"
 "http://www.w3.org/TR/2001/REC-SVG-20010904/DTD/svg10.dtd">
<svg version="1.0" xmlns="http://www.w3.org/2000/svg"
 width="260.000000pt" height="260.000000pt" viewBox="0 0 260.000000 260.000000"
 preserveAspectRatio="xMidYMid meet">
<metadata>
Created by potrace 1.14, written by Peter Selinger 2001-2017
</metadata>
<g transform="translate(0.000000,260.000000) scale(0.100000,-0.100000)"
fill="#000000" stroke="none">
<path d="M20 2430 c-17 -17 -20 -33 -20 -114 0 -120 15 -143 93 -148 l52 -3 0
-865 0 -865 -52 -3 c-78 -5 -93 -28 -93 -148 0 -148 -62 -134 594 -134 l555 0
3 191 3 191 28 24 c25 21 37 24 117 24 80 0 92 -3 117 -24 l28 -24 3 -191 3
-191 555 0 c656 0 594 -14 594 134 0 120 -15 143 -93 148 l-52 3 0 865 0 865
52 3 c78 5 93 28 93 148 0 151 170 134 -1300 134 -1247 0 -1260 0 -1280 -20z
m834 -432 c12 -17 16 -48 16 -121 0 -91 -2 -100 -25 -122 -22 -23 -31 -25
-122 -25 -142 0 -143 1 -143 142 0 149 -1 148 146 148 105 0 114 -1 128 -22z
m570 6 c23 -23 28 -54 25 -150 -5 -116 -15 -124 -149 -124 -134 0 -144 8 -149
124 -6 158 2 166 149 166 85 0 112 -3 124 -16z m578 -1 c15 -14 18 -32 18
-129 0 -143 -1 -144 -143 -144 -91 0 -100 2 -122 25 -23 22 -25 31 -25 122 0
142 1 143 142 143 90 0 115 -3 130 -17z m-1155 -435 c21 -20 23 -30 23 -125 0
-140 -3 -143 -147 -143 -144 0 -143 -1 -143 146 0 143 1 144 144 144 89 0 102
-2 123 -22z m582 -4 c18 -23 21 -41 21 -119 0 -78 -3 -96 -21 -119 -20 -25
-24 -26 -129 -26 -105 0 -109 1 -129 26 -18 23 -21 41 -21 119 0 78 3 96 21
119 20 25 24 26 129 26 105 0 109 -1 129 -26z m569 10 c20 -14 22 -23 22 -126
0 -149 1 -148 -142 -148 -145 0 -148 3 -148 142 0 91 2 104 22 125 20 21 30
23 123 23 75 0 106 -4 123 -16z m-627 -424 c185 -34 341 -196 356 -370 l6 -60
-433 0 -433 0 6 61 c12 134 111 269 241 330 97 46 166 56 257 39z"/>
</g>
</svg>
